<svg width="24" height="26" viewBox="0 0 24 26" fill="none" xmlns="http://www.w3.org/2000/svg">
<path d="M11.9718 0C10.2212 0.0188235 8.65882 0.122353 7.28471 0.310588C5.76 0.517647 4.55529 0.828235 3.67059 1.24235L3.27529 1.46824C2.97412 1.65647 2.67294 1.89176 2.37176 2.17412C1.95765 2.56941 1.6 3.01176 1.29882 3.50118C0.903529 4.12235 0.602353 4.80941 0.395294 5.56235C0.131765 6.44706 0 7.41647 0 8.47059V9.51529C0 10.9647 0.00941176 12.0847 0.0282353 12.8753C0.0847059 15.0024 0.254118 16.7718 0.536471 18.1835C0.894118 19.9718 1.47765 21.4212 2.28706 22.5318C3.22824 23.7929 4.48941 24.6306 6.07059 25.0447C8.12235 25.5906 10.0988 25.8165 12 25.7224C12.8659 25.6659 13.6941 25.5529 14.4847 25.3835C15.0494 25.2518 15.5671 25.0918 16.0376 24.9035L16.5741 24.6776L16.4612 22.56L15.84 22.7294C15.3129 22.8424 14.7765 22.9365 14.2306 23.0118C13.4588 23.1247 12.7247 23.1624 12.0282 23.1247C11.0306 23.1059 10.2776 23.04 9.76941 22.9271C8.96 22.7765 8.32941 22.4941 7.87765 22.08C7.33176 21.6094 7.00235 20.9318 6.88941 20.0471C6.85176 19.7835 6.83294 19.5106 6.83294 19.2282L7.53882 19.3976C8.12235 19.5106 8.73412 19.6047 9.37412 19.68C10.2776 19.8118 11.1529 19.8965 12 19.9341C12.7906 19.9718 13.6565 19.9529 14.5976 19.8776C15.2 19.84 16.0282 19.7553 17.0824 19.6235C18.1365 19.4918 19.1435 19.2094 20.1035 18.7765C21.0259 18.3435 21.7929 17.8306 22.4047 17.2376C23.0165 16.6447 23.3788 16.0471 23.4918 15.4447C23.6612 14.5976 23.7835 13.5718 23.8588 12.3671C23.9341 11.5012 23.9812 10.5882 24 9.62824V8.47059C24 7.41647 23.8682 6.44706 23.6047 5.56235C23.3976 4.80941 23.0965 4.12235 22.7012 3.50118C22.4 3.01176 22.0424 2.56941 21.6282 2.17412C21.3459 1.89176 21.0447 1.65647 20.7247 1.46824C20.4988 1.31765 20.3671 1.24235 20.3294 1.24235C19.4635 0.828235 18.2682 0.517647 16.7435 0.310588C15.3506 0.122353 13.7882 0.0188235 12.0565 0H11.9718ZM8.24471 4.37647C9.61882 4.37647 10.6447 4.90353 11.3224 5.95765L12 7.05882L12.6776 5.95765C13.3553 4.90353 14.3812 4.37647 15.7553 4.37647C16.9412 4.37647 17.8918 4.78118 18.6071 5.59059C19.3224 6.4 19.68 7.50118 19.68 8.89412V15.6424H16.9976V9.09176C16.9976 7.69882 16.4235 7.00235 15.2753 7.00235C13.9765 7.00235 13.3271 7.83059 13.3271 9.48706V13.0729H10.6729V9.48706C10.6729 7.83059 10.0235 7.00235 8.72471 7.00235C7.57647 7.00235 7.00235 7.69882 7.00235 9.09176V15.6424H4.32V8.89412C4.32 7.50118 4.67765 6.4 5.39294 5.59059C6.10824 4.78118 7.05882 4.37647 8.24471 4.37647Z" fill="black"/>
</svg>
